<svg width="751" height="552" viewBox="0 0 751 552" fill="none" xmlns="http://www.w3.org/2000/svg"><path d="M284.768 469.116a3.615 3.615 0 01-3.625 3.615l-216.892-.571a3.615 3.615 0 01-3.606-3.615V297.436a3.614 3.614 0 013.632-3.614l119.45.557a3.615 3.615 0 013.598 3.565l1.939 141.779a3.614 3.614 0 003.521 3.564l61.138 1.58a3.614 3.614 0 003.708-3.622l-.352-143.226a3.615 3.615 0 013.615-3.624h20.259a3.616 3.616 0 013.615 3.615v171.106zM663.835 275.703s-5.944-1.18-9.622 2.282c-8.559 8.034-18.219 23.564-20.471 23.971-2.252.407-10.058-5.017-10.058-5.017l-.242 14.704s5.185 4.648 11.938 4.238c6.753-.411 18.833-15.961 18.833-15.961l9.622-24.217z" fill="#1964F9"/><path d="M672.709 346.369l-3.901-13.175-18.266.091c-.024 0-9.15 100.595-9.15 100.595h14.722l16.598-87.511M654.52 433.88l-2.408 10.233h-28.428s1.573-8.229 9.031-8.317c7.458-.089 11.938 0 11.938 0l.591-1.91 9.276-.006z" stroke="#000" stroke-width=".904" stroke-linecap="round" stroke-linejoin="round"/><path d="M668.734 333.078c.935-.017 26.766 100.802 26.766 100.802h15.914l-19.143-100.869" stroke="#000" stroke-width=".904" stroke-linecap="round" stroke-linejoin="round"/><path d="M711.547 433.676l2.709 10.233h-33.554s1.573-8.232 9.034-8.32c7.461-.089 11.935 0 11.935 0l.591-1.907 9.285-.006zM668.808 332.993h9.571v10.026h-6.614l-2.957-10.026zM688.201 332.993h-9.822v10.029h9.822v-10.029zM688.201 332.993h4.07l2.001 10.026h-6.071v-10.026zM671.765 343.019h6.614v10.028h-3.869l-2.745-10.028z" stroke="#000" stroke-width=".904" stroke-linecap="round" stroke-linejoin="round"/><path d="M688.201 343.019h-9.822v10.028h9.822v-10.028zM688.201 343.019h6.071l1.789 10.028h-7.86v-10.028zM674.51 353.047h3.869v10.026h-1.216l-2.653-10.026zM688.201 353.047h-9.822v10.029h9.822v-10.029zM688.201 353.047h7.86l1.951 10.026h-9.811v-10.026zM677.151 363.073h1.228" stroke="#000" stroke-width=".904" stroke-linecap="round" stroke-linejoin="round"/><path d="M678.45 367.819l-.095-4.746h9.846v10.233M697.616 363.073h-9.415v10.233h9.415v-10.233zM697.82 363.218h.192l1.924 10.147h-2.284v-9.982a.167.167 0 01.168-.165z" stroke="#000" stroke-width=".904" stroke-linecap="round" stroke-linejoin="round"/><path d="M679.946 373.306h8.255v10.029h-5.867l-2.388-10.029zM697.616 373.306h-9.415v10.029h9.415v-10.029zM697.616 373.306h2.32l1.877 10.017-4.197-.012v-10.005zM682.535 383.335h5.666v10.025h-3.081l-2.585-10.025zM697.616 383.335h-9.415v10.028h9.415v-10.028z" stroke="#000" stroke-width=".904" stroke-linecap="round" stroke-linejoin="round"/><path d="M697.616 383.311l4.197-.009 2.007 10.058h-6.204v-10.049zM685.12 393.36h3.081v10.233h-.56l-2.521-10.233zM697.616 393.36h-9.415v10.233h9.415V393.36zM697.616 393.36h6.204l1.791 10.233h-7.995V393.36zM687.641 403.593h9.975v9.825h-7.34l-2.635-9.825zM697.616 403.593h7.995l1.789 9.825h-9.784v-9.825zM690.276 413.418h7.34v10.277l-4.758-.121-2.582-10.156zM707.438 413.418h-9.822v10.233h9.822v-10.233zM707.438 413.551l2.078 10.088-2.078.056v-10.144zM709.478 423.639l-1.842-9.71M692.859 423.659l4.757.036v10.185H695.5l-2.641-10.221z" stroke="#000" stroke-width=".904" stroke-linecap="round" stroke-linejoin="round"/><path d="M707.438 423.648h-9.822v10.232h9.822v-10.232zM707.438 423.695l2.058-.036 1.918 10.221h-3.976v-10.185zM677.104 256.936c-.806-4.363-4.465-7.692-8.854-7.692-4.985 0-9.129 4.203-9.129 9.421 0 4.522 2.893 8.264 6.986 9.2v5.371h11.215l-.082-10.38" stroke="#000" stroke-width=".904" stroke-linecap="round" stroke-linejoin="round"/><path d="M674.277 259.937a2.848 2.848 0 011.863-2.532 2.852 2.852 0 013.062.713 2.853 2.853 0 01.552 3.095 2.853 2.853 0 01-2.626 1.729" stroke="#000" stroke-width=".904" stroke-linecap="round" stroke-linejoin="round"/><path d="M663.835 275.703h15.317v-3.181h-15.317v3.181zM668.383 267.953a8.972 8.972 0 006.094-2.399 9.1 9.1 0 01-7.476 3.993c-.3.003-.601-.014-.9-.05v-1.848c.742.21 1.51.313 2.282.304zM660.34 253.896s6.245-3.657 10.554-.886 3.542 5.879 3.542 5.879 1.222-1.977 2.68-1.971c1.458.006 1.219.295 1.219.295s-.225-5.785-2.214-7.969c-1.989-2.184-5.436-1.523-10.144-1.788-4.707-.266-7.626-3.247-9.149-1.494-1.523 1.753.201 3.681.797 4.079.596.398-1.724-1.526-2.718-.463-.995 1.062-1.261 3.181 1.458 4.244 2.718 1.062 3.975.074 3.975.074z" fill="#030303"/><path d="M674.51 282.925s-1.476-6.596 11.215-7.186c12.691-.59 39.292 31.335 37.247 36.656-2.046 5.321-14.412 17.534-14.412 17.534l-11.047-8.264s12.101-9.801 12.192-12.667c.092-2.866-35.195-26.073-35.195-26.073z" fill="#1964F9"/><path d="M683.88 307.481s-4.961 1.638-5.371 1.945a.724.724 0 00-.257.921c.104.206.411.103.768 0 .357-.104 2.558-1.373 2.558-1.373s-2.251 2.04-2.455 2.243c-.204.204-.103.718 0 .886.103.168.817.203 1.074 0 .257-.204 2.559-2.712 2.559-2.712l-1.995 2.845c-.154.224-.074.428.271.684.346.257.7-.203.904-.46.203-.257 1.434-2.214 1.434-2.214s-.461 1.243-.614 1.6c-.153.357-.295 1.018.1 1.148.396.13.411-.841.617-1.098.207-.256.664-1.074 1.074-1.328.411-.254 1.585.05 2.556-.82.971-.871 1.024-1.689 1.024-1.689l-2.34-1.387-1.907.809z" fill="#52B3DF"/><path d="M699.732 333.589l-14.214-58.054h-25.184l-7.148 17.652-2.783 40.402h49.329z" fill="#1964F9"/><path d="M693.115 323.182s-11.357 2.843-12.322 3.459c-.965.617-1.112 1.069-.918 1.541.195.472.939.484 1.754.313.814-.171 6.398-1.744 6.398-1.744s-5.664 3.568-6.156 3.993c-.493.425-.85 1.053-.346 1.582.909.953 1.674.472 2.279.056s6.493-5.156 6.493-5.156-4.132 5.569-4.516 6.041c-.383.472-.395 1.237.083 1.562.776.531 1.6-.343 2.098-.886.499-.543 3.566-4.722 3.566-4.722s-1.441 2.143-1.842 2.919c-.402.776-.933 2.748.245 3.14 1.177.393.995-2.004 1.493-2.541.499-.537 1.724-2.104 2.68-2.606.956-.502 3.542.375 5.85-1.411 2.308-1.785 2.388-3.471 2.388-3.471l-4.826-3.618-4.401 1.549z" fill="#fff" stroke="#000" stroke-width=".904" stroke-linecap="round" stroke-linejoin="round"/><path d="M665.476 333.589l-13.364 100.259" stroke="#000" stroke-width=".904" stroke-linecap="round" stroke-linejoin="round"/><path d="M164.784 444.591a1.18 1.18 0 01-1.18-1.181V227.298H85.776a1.183 1.183 0 01-1.18-1.181v-44.244a1.18 1.18 0 011.18-1.181h211.597a1.18 1.18 0 011.18 1.181v44.244a1.178 1.178 0 01-1.18 1.181h-77.646V443.41a1.181 1.181 0 01-1.18 1.181h-53.763z" fill="#fff"/><path d="M297.373 181.873v44.244h-78.826V443.41h-53.763V226.117H85.776v-44.244h211.597zm0-2.361H85.776a2.364 2.364 0 00-2.361 2.361v44.244a2.363 2.363 0 002.36 2.361h76.648V443.41a2.362 2.362 0 002.361 2.361h53.763a2.362 2.362 0 002.361-2.361V228.478h76.465a2.363 2.363 0 002.361-2.361v-44.244a2.362 2.362 0 00-2.361-2.361z" fill="#1B1C1C"/><path d="M535.907 444.591a1.182 1.182 0 01-1.181-1.181V246.88l-50.528 196.822a1.185 1.185 0 01-1.145.886h-51.761a1.185 1.185 0 01-1.145-.886l-50.336-196.789V443.41a1.184 1.184 0 01-1.181 1.181h-49.958a1.184 1.184 0 01-1.181-1.181V181.873a1.184 1.184 0 011.181-1.181h80.461a1.181 1.181 0 011.139.886l47.16 174.155 46.632-174.164a1.179 1.179 0 011.139-.886h80.644a1.182 1.182 0 011.181 1.181v261.537a1.182 1.182 0 01-1.181 1.181l-49.94.009z" fill="#fff"/><path d="M585.856 181.873V443.41h-49.949V237.533L483.053 443.41h-51.764L378.63 237.533V443.41h-49.958V181.873h80.461l48.299 178.399 47.769-178.399h80.655zm-.012-2.361h-80.632a2.36 2.36 0 00-2.281 1.75l-45.499 169.92-46.021-169.926a2.355 2.355 0 00-2.278-1.744h-80.461a2.362 2.362 0 00-2.361 2.361V443.41a2.362 2.362 0 002.361 2.361h49.958a2.361 2.361 0 002.361-2.361V256.292L429.013 444a2.361 2.361 0 002.288 1.771h51.764a2.36 2.36 0 002.287-1.771l48.205-187.767v187.183a2.362 2.362 0 002.362 2.361h49.949a2.362 2.362 0 002.361-2.361V181.873a2.362 2.362 0 00-2.361-2.361h-.024z" fill="#1B1C1C"/><path d="M201.225 444.189a1.18 1.18 0 01-1.18-1.18V226.896h-77.828a1.18 1.18 0 01-1.181-1.18v-44.239c0-.313.124-.613.346-.834.221-.222.521-.346.835-.346h211.596a1.178 1.178 0 011.181 1.18v44.239a1.181 1.181 0 01-1.181 1.18h-77.648v216.113c0 .313-.124.613-.346.834a1.176 1.176 0 01-.834.346h-53.76z" fill="#fff"/><path d="M333.813 181.478v44.238h-78.828v217.293h-53.76V225.716h-79.008v-44.238h211.596zm0-2.361H122.217a2.36 2.36 0 00-2.362 2.361v44.238a2.36 2.36 0 002.362 2.362h76.647v214.931a2.36 2.36 0 002.361 2.362h53.76a2.36 2.36 0 002.361-2.362V228.078h76.467a2.36 2.36 0 002.362-2.362v-44.238a2.36 2.36 0 00-2.362-2.361z" fill="#1B1C1C"/><path d="M575.013 444.189a1.178 1.178 0 01-1.181-1.18V268.771c0-1.807-1.437-2.751-2.857-2.751a2.677 2.677 0 00-2.694 2.084l-44.98 175.197a1.181 1.181 0 01-1.142.885h-51.764a1.182 1.182 0 01-1.142-.885L424.456 268.21a2.67 2.67 0 00-2.694-2.084c-1.42 0-2.857.945-2.857 2.748v174.132a1.18 1.18 0 01-1.181 1.18h-49.949a1.183 1.183 0 01-1.181-1.18V181.477a1.18 1.18 0 011.181-1.18h80.461a1.181 1.181 0 011.142.885l47.166 174.17 46.632-174.167a1.181 1.181 0 011.142-.885h80.641a1.18 1.18 0 011.181 1.18v261.538a1.18 1.18 0 01-1.181 1.18l-49.946-.009z" fill="#fff"/><path d="M624.959 181.477v261.538h-49.946V268.771c0-2.539-2.022-3.932-4.038-3.932a3.84 3.84 0 00-3.837 2.969l-44.979 175.201h-51.764l-44.796-175.091a3.835 3.835 0 00-3.837-2.972c-2.016 0-4.038 1.393-4.038 3.928v174.132h-49.949V181.477h80.461L496.55 359.88l47.768-178.403h80.641zm0-2.361h-80.641a2.367 2.367 0 00-2.281 1.75l-45.499 169.927-46.021-169.938a2.359 2.359 0 00-2.281-1.745h-80.461a2.362 2.362 0 00-2.361 2.361v261.538a2.363 2.363 0 002.361 2.361h49.949a2.36 2.36 0 002.361-2.361V268.877c0-1.523 1.506-1.567 1.677-1.567a1.495 1.495 0 011.549 1.195l44.797 175.091a2.358 2.358 0 002.287 1.771h51.764a2.366 2.366 0 002.288-1.771l44.979-175.2c.07-.351.266-.664.551-.881.284-.218.638-.324.995-.3.174 0 1.68.044 1.68 1.57v174.238a2.36 2.36 0 002.361 2.362h49.946a2.362 2.362 0 002.361-2.362V181.477a2.363 2.363 0 00-2.361-2.361z" fill="#1B1C1C"/><path d="M476.1 15.754c-2.754 7.827-.26 11.292 4.878 17.806 5.139 6.513 12.142 11.244 18.692 16.342 6.549 5.097 12.947 10.934 16.082 18.62 3.134 7.685 2.104 17.623-4.395 22.785l-57.198 23.271c6.493-5.162 7.529-15.102 4.395-22.784-3.135-7.683-9.533-13.527-16.082-18.62-6.549-5.095-13.553-9.826-18.691-16.343-5.139-6.516-9.206-9.698-6.452-17.525L476.1 15.754zm0-.885h-.059a.899.899 0 00-.295.07l-58.748 23.544a.883.883 0 00-.504.528c-2.547 7.237.445 10.867 4.583 15.89.646.788 1.316 1.6 2.01 2.48 4.274 5.421 9.852 9.65 15.244 13.741a286.02 286.02 0 013.598 2.748c6.056 4.722 12.67 10.566 15.804 18.257 3.737 9.149.756 17.883-4.132 21.758a.881.881 0 00-.285.985.89.89 0 00.837.594.872.872 0 00.331-.065l57.198-23.272A.857.857 0 00511.9 92c7.128-5.663 7.739-16.268 4.663-23.815-3.293-8.075-10.117-14.128-16.359-18.983-1.181-.93-2.423-1.862-3.613-2.762-5.312-4.026-10.79-8.185-14.925-13.426-2.621-3.324-4.403-5.688-5.259-8.155-.886-2.582-.744-5.21.507-8.777a.885.885 0 00-.82-1.213h.006z" fill="#000"/><path d="M435.725 43.231l34.767-14.58M441.332 53.886l34.768-14.58M450.024 62.578l34.768-14.58M458.716 73.793l34.768-14.58M467.408 84.728l34.767-14.58M470.492 95.663l34.767-14.58" stroke="#000" stroke-width=".904" stroke-miterlimit="10"/><path d="M585.431 118.648c5.258-5.258 5.258-13.783 0-19.041-5.258-5.258-13.783-5.258-19.042 0-5.258 5.258-5.258 13.783 0 19.041 5.259 5.258 13.784 5.258 19.042 0z" stroke="#000" stroke-width=".904" stroke-linecap="round" stroke-linejoin="round"/><path d="M558.818 103.159l17.888 16.395 35.388-27.46-7.63-11.035-27.758 20.873-8.603-9.017-9.285 10.244z" fill="#fff" stroke="#000" stroke-width=".904" stroke-miterlimit="10"/><path d="M506.352 477.624l-8.532-8.532-8.531 8.532 8.531 8.531 8.532-8.531z" fill="#1964F9"/><path d="M181.494 501.541l-4.266-4.266-4.265 4.266 4.265 4.265 4.266-4.265zM390.643 524.751l-4.265-4.266-4.266 4.266 4.266 4.265 4.265-4.265zM497.82 8.242l-4.265-4.266-4.266 4.266 4.266 4.265 4.265-4.265z" stroke="#000" stroke-width=".904" stroke-linecap="round" stroke-linejoin="round"/><path d="M594.8 135.362l-4.265 4.265 4.265 4.266 4.266-4.266-4.266-4.265zM376.898 68.175l-7.986-9.043-9.044 7.987 7.987 9.043 9.043-7.987zM749.378 345.317a3.503 3.503 0 10-6.82-1.609 3.503 3.503 0 006.82 1.609zM131.411 14.558a3.504 3.504 0 10-6.82-1.609 3.504 3.504 0 006.82 1.609zM321.767 509.792a3.51 3.51 0 10-6.797-1.75 3.51 3.51 0 006.797 1.75z" fill="#1964F9"/><path d="M552.086 510.649a6.688 6.688 0 100-13.376 6.688 6.688 0 000 13.376zM7.688 201.756a6.688 6.688 0 100-13.375 6.688 6.688 0 000 13.375zM57.374 533.552a6.688 6.688 0 10-13.218-2.046 6.688 6.688 0 0013.218 2.046zM731.002 67.139a6.688 6.688 0 10-5.118-12.359 6.688 6.688 0 005.118 12.359zM106.158 524.033l6.706 6.753M34.678 109.109l9.637-8.83M28.333 6.41l12.337 7.136M690.002 540.015l-10.059 10.126M749.139 157.896l-9.637-8.831M627.453 35.65l-9.636-8.831M213.249 549.645l9.949-9.223M434.167 105.24l8.851 6.033M289.669 145.072l11.874 1.411M359.874 1l-11.398 10.705M712.034 8.29l-11.399 10.705M491.668 170.292l-10.492 9.645M458.997 538.953L446.996 551M387.16 461.809l8.19 11.071M614.676 462.11l9.811 7.24M727.39 481.456l9.81 7.24M580.656 533.383l-8.533 11.275M264.654 32.288l8.916 12.449" stroke="#000" stroke-width=".904" stroke-linecap="round" stroke-linejoin="round"/><path d="M168.492 262.673c-.183 2.456-60.764 188.266-60.764 188.266M85.23 291.8c-17.534 54.07-45.69 139.205-45.69 139.205M98.715 248.858c-1.745 5.466-11.25 35.608-13.577 42.795M49.297 401.043l68.094 20.223M60.745 368.69l66.545 19.762M69.67 336.732l68.092 20.223M81.62 302.475l68.092 20.223M91.806 269.954l68.094 20.223" stroke="#000" stroke-width=".904" stroke-miterlimit="10"/><path d="M85.286 169.318l-7.402 43.09h50.888l-1.857-26.769s6.098 7.673 12.724 8.479c6.626.806 23.587-5.557 23.587-5.557l1.857-16.965-23.853 9.276-13.255-16.433-42.689 4.879z" fill="#fff"/><path d="M151.129 111.429l-7.769 15.436 15.575-4.315" stroke="#000" stroke-width=".904" stroke-miterlimit="10"/><path d="M158.935 122.55a39.495 39.495 0 0027.761 11.215c21.424 0 38.793-16.666 38.793-37.226 0-20.559-17.369-37.217-38.793-37.217S147.9 75.99 147.9 96.548a35.8 35.8 0 003.228 14.881" stroke="#000" stroke-width=".904" stroke-miterlimit="10"/><path d="M125.277 212.845s27.982 30.104 28.068 40.953c.124 15.401-8.854 54.896-8.854 54.896l-19.226-4.888s7.491-42.204 7.565-46.744c.074-4.539-23.054-24.346-23.054-24.346s10.059 20.601 9.787 25.949c-.853 16.684-14.804 56.333-14.804 56.333l-20.087-5.43s14.462-41.411 11.03-51.115c-3.433-9.705-15.377-20.604-16.458-31.374-1.08-10.769 1.275-14.234 1.275-14.234h44.758z" fill="#1B1C1C"/><path d="M125.254 303.511l-3.132 10.507 27.743 8.772s1.21-8.589-6.041-11.151c-7.252-2.561-11.617-4.055-11.617-4.055l.691-2.287-7.644-1.786zM84.672 309.568l-5.832 8.264 21.575 19.523s4.675-7.305-.853-12.656c-5.528-5.35-8.875-8.52-8.875-8.52l2.765-4.235-8.78-2.376zM125.487 191.063a1.23 1.23 0 001.478 1.205l-.168-2.432h-.08a1.233 1.233 0 00-1.23 1.227zM127.777 204.067a1.237 1.237 0 00-.641-.428 1.22 1.22 0 00-.769.037 1.228 1.228 0 00.161 2.348 1.23 1.23 0 001.343-.581M82.98 210.767a1.234 1.234 0 01-.759 1.137 1.227 1.227 0 01-1.341-.267 1.229 1.229 0 01.186-1.893 1.225 1.225 0 011.554.153c.231.23.36.544.36.87z" fill="#030303"/><path d="M100.973 133.718c.829-4.498 4.598-7.895 9.128-7.895 5.139 0 9.424 4.35 9.424 9.74 0 4.66-2.951 8.541-7.181 9.5v4.722h-11.605v-9.922" stroke="#000" stroke-width=".904" stroke-linecap="round" stroke-linejoin="round"/><path d="M103.877 136.876a2.959 2.959 0 00-.769-2.245 2.95 2.95 0 00-4.345 0 2.959 2.959 0 00-.769 2.245c0 1.712 1.13 3.093 2.754 3.093" stroke="#000" stroke-width=".904" stroke-linecap="round" stroke-linejoin="round"/><path d="M109.971 145.134a9.283 9.283 0 01-6.292-2.473 9.406 9.406 0 007.724 4.114c.314.003.629-.014.941-.05v-1.907a9.458 9.458 0 01-2.373.316z" fill="#030303"/><path d="M112.754 139.391c1.688 0 3.055-1.531 3.055-3.418 0-1.888-1.367-3.418-3.055-3.418-1.687 0-3.054 1.53-3.054 3.418 0 1.887 1.367 3.418 3.054 3.418zM120.452 139.391c1.687 0 3.054-1.531 3.054-3.418 0-1.888-1.367-3.418-3.054-3.418-1.687 0-3.055 1.53-3.055 3.418 0 1.887 1.368 3.418 3.055 3.418zM115.718 135.949h1.688" stroke="#000" stroke-width=".904" stroke-miterlimit="10"/><path d="M99.429 134.226s-.564-9.327 10.235-10.422c8.241-.832 9.285 8.376 9.285 8.376s-1.18-4.371-8.139-3.648c-6.96.723-7.104 7.264-7.104 7.264s-.662-1.476-1.576-1.718a4.526 4.526 0 00-1.181-.224l-1.52.372zM95.285 172.006a1.23 1.23 0 100-2.461 1.23 1.23 0 000 2.461zM96.516 184.311a1.229 1.229 0 01-.76 1.137 1.236 1.236 0 01-1.341-.267 1.228 1.228 0 01-.267-1.341 1.236 1.236 0 011.137-.76 1.234 1.234 0 011.231 1.231zM109.231 170.776a1.23 1.23 0 11-2.462-.003 1.23 1.23 0 012.462.003zM109.231 184.311a1.23 1.23 0 11-2.462-.003 1.23 1.23 0 012.462.003zM102.873 163.804a1.226 1.226 0 01-.749 1.148 1.233 1.233 0 01-1.687-.887 1.233 1.233 0 011.206-1.477 1.23 1.23 0 011.23 1.216zM102.873 177.345a1.23 1.23 0 11-2.461.002 1.23 1.23 0 012.461-.002z" fill="#030303"/><path d="M102.873 177.345a1.23 1.23 0 11-2.461.002 1.23 1.23 0 012.461-.002zM102.873 190.875a1.23 1.23 0 11-2.46 0 1.23 1.23 0 012.46 0zM127.948 177.528a1.23 1.23 0 11-2.461.002 1.23 1.23 0 012.461-.002zM140.663 191.063a1.232 1.232 0 11-2.463-.002 1.232 1.232 0 012.463.002zM134.305 184.089a1.23 1.23 0 11-2.461.002 1.23 1.23 0 012.461-.002z" fill="#030303"/><path d="M134.305 184.089a1.23 1.23 0 11-2.461.002 1.23 1.23 0 012.461-.002zM145.733 185.288a1.23 1.23 0 100-2.462 1.23 1.23 0 000 2.462zM115.29 177.528a1.232 1.232 0 11-2.463-.002 1.232 1.232 0 012.463.002zM114.062 192.294a1.23 1.23 0 100-2.462 1.23 1.23 0 000 2.462zM121.65 170.557a1.23 1.23 0 11-2.461.002 1.23 1.23 0 012.461-.002zM120.419 185.32a1.23 1.23 0 100-2.462 1.23 1.23 0 000 2.462z" fill="#030303"/><path d="M120.419 185.32a1.23 1.23 0 100-2.462 1.23 1.23 0 000 2.462zM120.419 198.855a1.23 1.23 0 100-2.462 1.23 1.23 0 000 2.462zM114.062 165.257a1.23 1.23 0 10-.001-2.461 1.23 1.23 0 00.001 2.461zM115.29 177.561a1.236 1.236 0 01-.761 1.137 1.235 1.235 0 01-1.677-.899 1.231 1.231 0 112.438-.238zM121.65 170.587a1.233 1.233 0 01-2.1.874 1.235 1.235 0 01-.268-1.342 1.229 1.229 0 012.006-.401c.231.231.361.543.362.869z" fill="#030303"/><path d="M121.65 170.587a1.233 1.233 0 01-2.1.874 1.235 1.235 0 01-.268-1.342 1.229 1.229 0 012.006-.401c.231.231.361.543.362.869zM121.65 184.134a1.231 1.231 0 11-2.465 0 1.231 1.231 0 012.465 0zM108.203 159.088a1.23 1.23 0 100-2.462 1.23 1.23 0 000 2.462zM102.873 204.616a1.23 1.23 0 11-2.461.002 1.23 1.23 0 012.461-.002zM115.588 204.616a1.229 1.229 0 01-2.438.24 1.228 1.228 0 011.207-1.47 1.225 1.225 0 011.137.759c.062.15.094.31.094.471zM109.23 197.642a1.233 1.233 0 01-2.436.247 1.231 1.231 0 112.436-.247zM109.23 211.177a1.23 1.23 0 11-2.461.002 1.23 1.23 0 012.461-.002z" fill="#030303"/><path d="M109.23 211.177a1.23 1.23 0 11-2.461.002 1.23 1.23 0 012.461-.002zM115.381 204.616c0 .244-.072.482-.208.684a1.225 1.225 0 01-1.264.523 1.228 1.228 0 01-.966-.968 1.225 1.225 0 011.21-1.469 1.225 1.225 0 011.228 1.23zM121.741 197.642a1.233 1.233 0 01-.759 1.137 1.228 1.228 0 01-1.678-.897 1.22 1.22 0 01.07-.711 1.232 1.232 0 012.367.471zM121.741 211.177a1.23 1.23 0 11-2.461.002 1.23 1.23 0 012.461-.002z" fill="#030303"/><path d="M121.741 211.177a1.23 1.23 0 11-2.461.002 1.23 1.23 0 012.461-.002zM82.98 210.767a1.234 1.234 0 01-.759 1.137 1.227 1.227 0 01-1.341-.267 1.229 1.229 0 01.186-1.893 1.225 1.225 0 011.554.153c.231.23.36.544.36.87zM94.465 198.463a1.23 1.23 0 100-2.462 1.23 1.23 0 000 2.462zM94.465 211.998a1.23 1.23 0 100-2.462 1.23 1.23 0 000 2.462zM89.338 190.258a1.229 1.229 0 01-1.469 1.21 1.23 1.23 0 01.238-2.438 1.231 1.231 0 011.231 1.228zM89.338 203.796a1.228 1.228 0 01-.76 1.137 1.236 1.236 0 01-1.34-.267 1.228 1.228 0 01.186-1.894 1.232 1.232 0 011.914 1.024z" fill="#030303"/><path d="M89.338 203.796a1.228 1.228 0 01-.76 1.137 1.236 1.236 0 01-1.34-.267 1.228 1.228 0 01.186-1.894 1.232 1.232 0 011.914 1.024zM89.365 190.27a1.228 1.228 0 01-.76 1.137 1.236 1.236 0 01-1.341-.267 1.233 1.233 0 01.186-1.894 1.232 1.232 0 011.915 1.024z" fill="#030303"/><path d="M88.134 205.035a1.23 1.23 0 100-2.461 1.23 1.23 0 000 2.461zM81.777 198.064a1.23 1.23 0 100-2.462 1.23 1.23 0 000 2.462z" fill="#030303"/><path d="M81.777 198.064a1.23 1.23 0 100-2.462 1.23 1.23 0 000 2.462zM126.741 178.877a1.23 1.23 0 100-2.462 1.23 1.23 0 000 2.462zM120.384 171.903a1.23 1.23 0 100-2.462 1.23 1.23 0 000 2.462zM158.386 186.049a1.23 1.23 0 100-2.462 1.23 1.23 0 000 2.462zM163.028 178.455a1.23 1.23 0 100-2.462 1.23 1.23 0 000 2.462zM152.451 179.078a1.23 1.23 0 10-.001-2.461 1.23 1.23 0 00.001 2.461zM153.681 190.293a1.23 1.23 0 11-2.461.002 1.23 1.23 0 012.461-.002zM114.056 165.153a1.23 1.23 0 100-2.462 1.23 1.23 0 000 2.462zM121.615 184.175a1.229 1.229 0 01-.754 1.143 1.232 1.232 0 01-1.684-.891 1.23 1.23 0 112.438-.252zM96.54 157.149a1.234 1.234 0 01-.758 1.136 1.235 1.235 0 01-1.68-.889 1.23 1.23 0 112.438-.247zM90.182 163.71a1.234 1.234 0 01-.76 1.137 1.228 1.228 0 01-1.34-.267 1.228 1.228 0 01.186-1.893 1.225 1.225 0 011.554.153c.23.231.36.544.36.87z" fill="#030303"/><path d="M90.182 163.71a1.234 1.234 0 01-.76 1.137 1.228 1.228 0 01-1.34-.267 1.228 1.228 0 01.186-1.893 1.225 1.225 0 011.554.153c.23.231.36.544.36.87zM89.338 177.75a1.233 1.233 0 01-.76 1.137 1.236 1.236 0 01-1.34-.267 1.228 1.228 0 01-.268-1.341 1.236 1.236 0 011.137-.76 1.23 1.23 0 011.231 1.231z" fill="#030303"/><path d="M114.564 153.005l-15.713.127v-3.282h15.789l-.076 3.155z" stroke="#000" stroke-width=".904" stroke-linecap="round" stroke-linejoin="round"/><path d="M126.747 186.158c.679 10.46 1.653 26.696 1.824 26.687H77.53s2.316-57.493 21.32-59.736c1.875-.222 12.485-.104 15.714-.127" stroke="#000" stroke-width=".904" stroke-linecap="round" stroke-linejoin="round"/><path d="M169.622 171.953s11.873-2.151 13.036-1.986c1.163.165 1.499.531 1.517 1.059.018.529-.673.85-1.514 1.036-.841.186-6.753 1.078-6.753 1.078s6.839.947 7.479 1.139c.641.192 1.249.626.998 1.34-.449 1.281-1.37 1.151-2.116 1.018-.747-.133-8.282-2.089-8.282-2.089s6.251 3.473 6.809 3.757c.558.283.885.994.59 1.502-.505.829-1.65.36-2.361.065-.711-.295-5.348-2.91-5.348-2.91s2.261 1.402 2.969 1.959c.708.558 2.043 2.187 1.101 3.055-.941.868-1.771-1.476-2.482-1.753-.711-.277-2.509-1.245-3.621-1.313-1.113-.068-3.161 1.853-6.095 1.162-2.934-.69-1.476-.554-1.476-.554l.765-7.14 4.784-.425z" fill="#fff" stroke="#000" stroke-width=".904" stroke-linecap="round" stroke-linejoin="round"/><path d="M115.712 173.63l11.091 12.549c3.984 4.061 8.837 8.175 12.319 8.385 6.96.422 24.063-6.685 24.063-6.685l1.659-15.495s-21.714 8.264-24.037 7.836c-2.322-.428-12.274-16.43-21.102-24.715-3.79-3.542-9.917-2.361-9.917-2.361" stroke="#000" stroke-width=".904" stroke-linecap="round" stroke-linejoin="round"/><path d="M81.777 182.068a1.088 1.088 0 00-.33.047l-.45 2.134a1.234 1.234 0 001.62-.049 1.23 1.23 0 00-.84-2.132zM131.847 170.557a1.225 1.225 0 001.508 1.198l-1.393-1.714a1.21 1.21 0 00-.115.516zM125.51 164.111a1.229 1.229 0 00.849 1.167 1.23 1.23 0 001.374-.441l-1.503-1.844a1.22 1.22 0 00-.72 1.118zM119.153 157.137a1.23 1.23 0 002.435.254l-1.455-1.458a1.233 1.233 0 00-.98 1.204zM119.705 155.907l.094-.307-.094-.092v.399z" fill="#030303"/></svg>